<?xml version="1.0" encoding="UTF-8"?>
<svg width="174px" height="51px" viewBox="0 0 174 51" version="1.1" xmlns="http://www.w3.org/2000/svg" xmlns:xlink="http://www.w3.org/1999/xlink">
    <!-- Generator: Sketch 50.2 (55047) - http://www.bohemiancoding.com/sketch -->
    <title>Version web small</title>
    <desc>Created with Sketch.</desc>
    <defs></defs>
    <g id="Version-web-small" stroke="none" stroke-width="1" fill="none" fill-rule="evenodd">
        <g id="atipik-logo-web-small" transform="translate(3.000000, 3.000000)" fill="#FC2411">
            <path d="M7.29196143,10.5487505 L7.29196143,4.93874382 C7.29196143,3.36791887 8.41413459,2.80688934 9.76022299,3.48018249 L26.8118303,13.3538981 C28.1579187,14.1388777 29.2798033,16.0464935 29.2798033,17.6173185 L29.2798033,28.8373318 C29.2798033,30.4078681 28.1579187,32.315484 26.8118303,33.1010407 L17.0518959,38.7110474 C15.7058075,39.4963156 13.5742844,39.4963156 12.2279075,38.7110474 L2.46826157,33.1010407 C1.12188461,32.315484 0,30.4078681 0,28.8373318 L0,9.20216418 C0,7.63162782 1.12188461,7.0703097 2.46826157,7.74360285 L7.29196143,10.5487505 Z" id="Fill-1"></path>
            <path d="M63.5,19.7 L63.5,19 C63.5,14.1 60.7,12.4 57.4,12.4 C53.6,12.4 51.4,14.5 51.2,17.8 L46.5,17.8 C47,12 52.1,8.7 57.3,8.7 C64.7,8.7 68.1,12.3 68,19.8 L68,26 C67.9,30.5 68.2,33.6 68.7,36.2 L64.1,36.2 C64,35.2 63.8,34.1 63.7,32.5 C62.1,35.3 59.2,36.9 54.5,36.9 C49.4,36.9 45.2,34.1 45.2,29.1 C45.3,22.8 52.4,20.9 63.5,19.7 Z M50.3,29 C50.3,31.5 52.3,33.2 55.5,33.2 C59.7,33.2 63.8,31.2 63.8,24.9 L63.8,23.2 C55.6,24.1 50.3,25.3 50.3,29 Z" id="Shape" fill-rule="nonzero"></path>
            <path d="M80.6,2.6 L80.6,9.4 L85.7,9.4 L85.7,13.1 L80.6,13.1 L80.6,29.1 C80.6,31.9 80.8,32.6 83.4,32.6 L85.7,32.6 L85.7,36.4 L82.4,36.4 C77.3,36.4 76,35.3 76,29.6 L76,13 L71.7,13 L71.7,9.3 L76,9.3 L76,2.5 L80.6,2.5 L80.6,2.6 Z" id="Shape" fill-rule="nonzero"></path>
            <path d="M96.2,5.5 L91.6,5.5 L91.6,0 L96.2,0 L96.2,5.5 Z M96.2,36.2 L91.6,36.2 L91.6,9.3 L96.2,9.3 L96.2,36.2 Z" id="Shape" fill-rule="nonzero"></path>
            <path d="M107.9,13.6 C109.5,10.7 112.4,8.9 116.7,8.9 C122.9,8.9 128.2,14.1 128.2,22.9 C128.2,31.8 122.8,36.9 116.7,36.9 C112.4,36.9 109.5,35 107.9,32.2 L107.9,45 L103.3,45 L103.3,9.3 L107.9,9.3 L107.9,13.6 Z M123.2,22.9 C123.2,16.5 120.2,12.8 115.5,12.8 C111.4,12.8 107.6,15.8 107.6,22.9 C107.6,30 111.4,33 115.5,33 C120.2,33 123.2,29.3 123.2,22.9 Z" id="Shape" fill-rule="nonzero"></path>
            <path d="M137.9,5.5 L133.4,5.5 L133.4,0 L137.9,0 L137.9,5.5 Z M137.9,36.2 L133.4,36.2 L133.4,9.3 L137.9,9.3 L137.9,36.2 Z" id="Shape" fill-rule="nonzero"></path>
            <polygon id="Shape" fill-rule="nonzero" points="149.7 21.4 160.6 9.3 166.2 9.3 155.9 20.5 167.6 36.3 162 36.3 152.8 23.9 149.6 27.3 149.6 36.3 145.1 36.3 145.1 0 149.6 0 149.6 21.4"></polygon>
        </g>
    </g>
</svg>