<?xml version="1.0" encoding="utf-8"?>
<!-- Generator: Adobe Illustrator 21.0.0, SVG Export Plug-In . SVG Version: 6.00 Build 0)  -->
<svg version="1.1" xmlns="http://www.w3.org/2000/svg" xmlns:xlink="http://www.w3.org/1999/xlink" x="0px" y="0px"
	 viewBox="0 0 969.5 340.2" style="enable-background:new 0 0 969.5 340.2;" xml:space="preserve">
<style type="text/css">
	.st0{fill:#1A1A1A;}
	.st1{display:none;}
	.st2{display:inline;fill:none;stroke:#E6007E;stroke-miterlimit:10;}
</style>
<g id="Ebene_1">
	<g>
		<path class="st0" d="M128.2,149.1c-5-3.3-11.1-4.4-17-3.2c-6.1,1.3-11.4,4.9-14.8,10.1c-7,10.7-3.9,25.1,6.8,32
			c10.7,6.9,24.8,3.9,32.1-6.9l12.6-19.4l-19.5-12.7C128.3,149.1,128.3,149.1,128.2,149.1z"/>
		<path class="st0" d="M246.2,152.1c-5.3-3.4-11.6-4.6-17.7-3.2c-6,1.3-11,4.8-14.2,9.9l-0.1,0.1l-12.6,19.4l19.4,12.6
			c11.1,6.9,25.2,3.9,32.1-6.8C260,173.4,257,159,246.2,152.1z"/>
		<path class="st0" d="M174.7,28.3C96.4,28.3,33,91.8,33,170.1s63.5,141.7,141.7,141.7s141.7-63.5,141.7-141.7S253,28.3,174.7,28.3z
			 M266,192.5c-5.6,8.6-14.2,14.5-24.3,16.6c-9.9,2.1-20.2,0.2-29-5.2l-0.1-0.1l-19.4-12.6L155,250.1l-12.9-8.4l38.2-58.8
			l-19.4-12.6l-12.7,19.5c-5.7,8.5-14.4,14.4-24.3,16.6c-10.1,2.2-20.4,0.3-29-5.3c-17.9-11.6-22.9-35.5-11.3-53.4
			c5.7-8.7,14.4-14.7,24.6-16.8c10.1-2.1,20.3-0.2,28.8,5.5l19.4,12.6l38.2-58.8l12.9,8.4l-38.2,58.8l19.4,12.6l12.6-19.4
			c5.4-8.6,13.9-14.5,24-16.8c10.2-2.2,20.7-0.3,29.5,5.4C272.5,150.7,277.6,174.7,266,192.5z"/>
		<rect x="891" y="96.9" class="st0" width="21.1" height="112"/>
		<path class="st0" d="M746.7,127.9c-11.2,0-20,3.3-26.4,9.1v-6.8h-21.1v112h21.1v-40.1c6.4,5.8,15.2,9.1,26.4,9.1
			c20.3,0,39.1-16.9,39.1-41.6C785.9,144.9,767,127.9,746.7,127.9z M743.1,193.1c-11.3,0-22.7-9-22.7-23.5
			c0-14.5,11.3-23.6,22.7-23.6c12.8,0,22.4,9.1,22.4,23.6C765.4,184.2,755.8,193.1,743.1,193.1z"/>
		<path class="st0" d="M467.5,137c-6.4-5.8-15.2-9.1-26.4-9.1c-20.3,0-39.1,17-39.1,41.8c0,24.7,18.8,41.6,39.1,41.6
			c11.2,0,20-3.3,26.4-9.1v6.8h21.1v-112h-21.1V137z M444.8,193.1c-12.8,0-22.4-9-22.4-23.5c0-14.5,9.6-23.6,22.4-23.6
			c11.3,0,22.7,9.1,22.7,23.6C467.5,184.2,456.1,193.1,444.8,193.1z"/>
		<path class="st0" d="M527.6,144.6v-14.3h-21.1v78.6h21.1v-25.4c0-21.9,8.9-33.7,28.4-33.7h4.6l1.1-20c-1.9-0.6-3.5-0.6-5.6-0.6
			C543.3,129.2,534,135.5,527.6,144.6z"/>
		<path class="st0" d="M836.5,128.4c-23.8,0-43.4,16.5-43.4,41.3c0,24.7,19.6,41.3,43.4,41.3c23.3,0,43-16.5,43-41.3
			C879.5,144.9,859.8,128.4,836.5,128.4z M836.5,193.1c-11.5,0-23-8.8-23-23.5c0-14.7,11.5-23.5,23-23.5c11,0,22.5,8.8,22.5,23.5
			C859,184.3,847.5,193.1,836.5,193.1z"/>
		<path class="st0" d="M606.5,127.9c-22.8,0-41.2,17-41.2,41.8c0,24.7,18.4,41.6,40.9,41.6c17.4,0,31.6-7.9,38.7-24.3l-18.8-3.9
			c-5.7,9.6-13.6,10.4-19.8,10.4c-9.7,0-17.9-6.9-20-18.3h60.7v-7.1C646.1,144.1,627.8,127.9,606.5,127.9z M586.9,160.5
			c2.6-9.8,11.7-14.5,19.6-14.5c8.5,0,16.1,4.4,18.8,14.5H586.9z"/>
		<rect x="659.8" y="130.3" class="st0" width="21.1" height="78.6"/>
	</g>
</g>
<g id="help" class="st1">
	<line class="st2" x1="31.5" y1="-158.3" x2="348.1" y2="-645.8"/>
	<line class="st2" x1="13" y1="-158.3" x2="329.6" y2="-645.8"/>
	<line class="st2" x1="-14.7" y1="-158.3" x2="301.9" y2="-645.8"/>
	<line class="st2" x1="-33.1" y1="-158.3" x2="283.5" y2="-645.8"/>
	<line class="st2" x1="-88.2" y1="-158.3" x2="228.4" y2="-645.8"/>
	<line class="st2" x1="-106.7" y1="-158.3" x2="209.9" y2="-645.8"/>
	<line class="st2" x1="105.1" y1="-158.3" x2="421.7" y2="-645.8"/>
	<line class="st2" x1="86.6" y1="-158.3" x2="403.2" y2="-645.8"/>
	<line class="st2" x1="31.5" y1="-158.3" x2="348.1" y2="-645.8"/>
	<line class="st2" x1="13" y1="-158.3" x2="329.6" y2="-645.8"/>
	<line class="st2" x1="-14.7" y1="-158.3" x2="301.9" y2="-645.8"/>
	<line class="st2" x1="-33.1" y1="-158.3" x2="283.5" y2="-645.8"/>
	<line class="st2" x1="-88.2" y1="-158.3" x2="228.4" y2="-645.8"/>
	<line class="st2" x1="-106.7" y1="-158.3" x2="209.9" y2="-645.8"/>
	<line class="st2" x1="105.1" y1="-158.3" x2="421.7" y2="-645.8"/>
	<line class="st2" x1="86.6" y1="-158.3" x2="403.2" y2="-645.8"/>
	<line class="st2" x1="-107.6" y1="-704.7" x2="448.2" y2="-343.7"/>
	<line class="st2" x1="-107.6" y1="-621" x2="448.2" y2="-260"/>
	<line class="st2" x1="-107.6" y1="-603" x2="448.2" y2="-242"/>
	<line class="st2" x1="-106.7" y1="-518.7" x2="448.2" y2="-158.3"/>
	<line class="st2" x1="-106.7" y1="-547" x2="448.2" y2="-186.6"/>
	<line class="st2" x1="-106.7" y1="-528.7" x2="448.2" y2="-168.3"/>
	<line class="st2" x1="-106.7" y1="-675.6" x2="448.2" y2="-315.2"/>
	<line class="st2" x1="-106.7" y1="-693.8" x2="448.2" y2="-333.4"/>
</g>
</svg>
